<svg _ngcontent-xbm-c13="" width="100%" height="100%" viewBox="0 0 140 27" fill="none" xmlns="http://www.w3.org/2000/svg" class="ng-tns-c13-0 ng-star-inserted"><g _ngcontent-xbm-c13="" class="ng-tns-c13-0"><path _ngcontent-xbm-c13="" d="M0 26.2498C9.5712 26.2498 18.5668 19.062 19.9159 8.5076C19.9289 8.40305 20.0696 8.40828 20.0696 8.51283V26.2498C30.4221 26.2498 40.1678 17.7682 40.1678 6.08203H0V26.2498Z" fill="currentColor" class="ng-tns-c13-0"></path><path _ngcontent-xbm-c13="" d="M53.9012 6.08222V6.07699C53.8413 6.07699 53.7944 6.03779 53.7944 5.97767C53.7944 5.91755 53.8335 5.88358 53.8751 5.87051C53.9038 5.86005 53.9611 5.84437 53.9923 5.83391C56.503 5.09161 58.3365 2.75752 58.3365 0H52.2812V6.07699H52.2865H52.2839V25.6305H58.3391V6.08222H53.9012Z" fill="currentColor" class="ng-tns-c13-0"></path><path _ngcontent-xbm-c13="" d="M110.7 6.08222V6.07699C110.64 6.07699 110.593 6.03779 110.593 5.97767C110.593 5.91755 110.632 5.88358 110.674 5.87051C110.703 5.86005 110.76 5.84437 110.791 5.83391C113.302 5.09161 115.135 2.75752 115.135 0H109.08V6.07699H109.085H109.083V25.6305H115.138V6.08222H110.7Z" fill="currentColor" class="ng-tns-c13-0"></path><path _ngcontent-xbm-c13="" d="M140 25.6303V6.08203H134.031V16.5318C134.031 20.1232 131.387 21.1896 129.247 21.1896C127.197 21.1896 125.192 19.7781 125.192 16.6599V6.08203H119.222V16.8037C119.178 22.7866 121.743 26.2498 127.301 26.2498C129.853 26.2498 132.565 24.4907 133.599 22.2403H134.151L135.37 25.633H140V25.6303Z" fill="currentColor" class="ng-tns-c13-0"></path><path _ngcontent-xbm-c13="" d="M76.5481 5.46875C73.5348 5.46875 71.3236 7.36111 69.9199 9.36064H69.2662L68.0108 6.34959H63.4375V10.4114V25.8979H69.4068V15.2259C69.4068 11.5928 71.8393 10.2807 73.9801 10.2807C76.121 10.2807 78.2462 11.8803 78.2462 15.043V25.9005H84.2155V14.6091C84.2155 8.60788 81.1787 5.46875 76.5481 5.46875Z" fill="currentColor" class="ng-tns-c13-0"></path><path _ngcontent-xbm-c13="" d="M90.4459 6.08203L95.1989 20.5779H96.1808L100.942 6.08203H107.072L99.2957 25.6303H92.0841L84.3125 6.08203H90.4459Z" fill="currentColor" class="ng-tns-c13-0"></path></g></svg>